<?xml version="1.0" standalone="no"?>
<svg viewBox="0 0 200 200" xmlns="http://www.w3.org/2000/svg">
  <path fill="#00BCD4" d="M33.1,-56.4C42.5,-52,49.4,-42.2,54.2,-31.9C59.1,-21.6,62,-10.8,66.3,2.5C70.5,15.8,76.2,31.5,70.6,40.6C65.1,49.6,48.2,51.9,34.5,59.4C20.9,67,10.4,79.8,0.3,79.2C-9.8,78.7,-19.6,64.8,-31,56C-42.4,47.1,-55.3,43.3,-66.6,34.8C-77.9,26.3,-87.5,13.1,-88.8,-0.8C-90.1,-14.7,-83.1,-29.3,-68.1,-31.3C-53,-33.3,-29.9,-22.5,-17.2,-25.1C-4.6,-27.6,-2.3,-43.4,4.8,-51.7C11.9,-60.1,23.8,-60.9,33.1,-56.4Z" transform="translate(100 100)" />
</svg>
