<?xml version="1.0" encoding="utf-8"?>
<!-- Generator: Adobe Illustrator 24.3.0, SVG Export Plug-In . SVG Version: 6.00 Build 0)  -->
<svg version="1.1" id="Layer_1" xmlns="http://www.w3.org/2000/svg" xmlns:xlink="http://www.w3.org/1999/xlink" x="0px" y="0px"
	 viewBox="0 0 480 291" style="enable-background:new 0 0 480 291;" xml:space="preserve">
<style type="text/css">
	.st0{fill:#FF4081;}
</style>
<path class="st0" d="M0,232.3c12.3,15.7,25-26.3,37-32C49.2,195,62,227,74,227c12.2,0,24-32,37-69.3C123.1,120,135,78,148,45.6
	c12-31.7,24-53.7,37-42.7c11.9,11,24,53,37,74.7c11.8,21.3,24,21.3,36,5.3c12.8-16,25-48,37-64c12.7-16,25-16,37,5.3
	c12.6,21.7,25,63.7,37,85.4c12.5,21.3,25,21.3,37,32c12.5,10.3,25,32.3,37,37.3c12.4,5,25-5,37,0V291c-12.3,0-25,0-37,0
	c-12.2,0-25,0-37,0c-12.2,0-24,0-37,0c-12.1,0-24,0-37,0c-12,0-24,0-37,0c-11.9,0-24,0-37,0c-11.8,0-24,0-36,0c-12.8,0-25,0-37,0
	c-12.7,0-25,0-37,0c-12.6,0-25,0-37,0c-12.5,0-25,0-37,0c-12.5,0-25,0-37,0c-12.4,0-25,0-37,0V232.3z"/>
</svg>
