<?xml version="1.0" encoding="utf-8"?>
<!-- Generator: Adobe Illustrator 24.3.0, SVG Export Plug-In . SVG Version: 6.00 Build 0)  -->
<svg version="1.1" id="Layer_1" xmlns="http://www.w3.org/2000/svg" xmlns:xlink="http://www.w3.org/1999/xlink" x="0px" y="0px"
	 viewBox="0 0 1440 291" style="enable-background:new 0 0 1440 291;" xml:space="preserve">
<style type="text/css">
	.st0{fill:#FF4081;}
</style>
<path class="st0" d="M0,0h6c6,0,18.6,0,31,0c12,0,24.5,0,37,0c12,0,24.5,0,37,0c12,0,24.4,0,37,0c12,0,24.3,0,37,0c12,0,24.2,0,37,0
	c12,0,24.2,0,36,0c13,0,25.1,0,37,0c13,0,25,0,37,0c13,0,24.9,0,37,0c13,0,24.8,0,37,0c12,0,24.8,0,37,0c12,0,24.7,0,37,0
	c12,0,24.6,0,37,0c12,0,24.5,0,37,0c12,0,24.5,0,37,0c12,0,24.4,0,37,0c12,0,24.3,0,37,0c12,0,24.2,0,37,0c12,0,24.2,0,36,0
	c13,0,25.1,0,37,0c13,0,25,0,37,0c13,0,24.9,0,37,0c13,0,24.8,0,37,0c12,0,24.8,0,37,0c12,0,24.7,0,37,0c12,0,24.6,0,37,0
	c12,0,24.5,0,37,0c12,0,24.5,0,37,0c12,0,24.4,0,37,0c12,0,24.3,0,37,0c12,0,24.2,0,37,0c12,0,24.2,0,36,0c13,0,25.1,0,37,0
	c13,0,25,0,37,0c13,0,24.9,0,37,0c13,0,24.8,0,37,0c12,0,24.8,0,37,0c12,0,24.7,0,30.8,0h6.2v256.1l-6-10.7
	c-6-10.3-18.6-32.3-31-26.6c-12,5.3-24.5,37.3-37,26.6c-12-10.3-24.5-64.3-37-96c-12-32.3-24.4-42.3-37-48c-12-5.3-24.3-5.3-37,0
	c-12,5.7-24.2,15.7-37,37.4c-12,21.3-24.2,53.3-36,69.3c-13,16-25.1,16-37-5.3c-13-21.7-25-63.7-37-90.7c-13-27-24.9-37-37-10.7
	c-13,26.7-24.8,90.7-37,90.7c-12,0-24.8-64-37-85.3c-12-21.7-24.7,0.3-37,5.3c-12,5-24.6-5-37,0c-12,5-24.5,27-37,37.3
	c-12,10.7-24.5,10.7-37,32c-12,21.7-24.4,63.7-37,85.4c-12,21.3-24.3,21.3-37,5.3c-12-16-24.2-48-37-64c-12-16-24.2-16-36,5.3
	c-13,21.7-25.1,63.7-37,74.7c-13,11-25-11-37-42.7c-13-32.3-24.9-74.3-37-112.1C578,96,566.2,64,554,64c-12,0-24.8,32-37,26.7
	c-12-5.7-24.7-47.7-37-32c-12,16.3-24.6,90.3-37,122.7c-12,31.7-24.5,21.7-37,0c-12-21.3-24.5-53.3-37-80C357,75,344.6,53,332,64
	c-12,11-24.3,53-37,90.7c-12,37.3-24.2,69.3-37,64c-12-5.7-24.2-47.7-36-85.4C209,96,196.9,64,185,74.7c-13,10.3-25,64.3-37,96
	c-13,32.3-24.9,42.3-37,42.6c-13-0.3-24.8-10.3-37,0c-12,10.7-24.8,42.7-37,32c-12-10.3-24.7-64.3-30.8-90.6L0,128.1V0z"/>
</svg>
