<?xml version="1.0" encoding="utf-8"?>
<!-- Generator: Adobe Illustrator 24.3.0, SVG Export Plug-In . SVG Version: 6.00 Build 0)  -->
<svg version="1.1" id="Layer_1" xmlns="http://www.w3.org/2000/svg" xmlns:xlink="http://www.w3.org/1999/xlink" x="0px" y="0px"
	 viewBox="0 0 1440 224" style="enable-background:new 0 0 1440 224;" xml:space="preserve">
<style type="text/css">
	.st0{fill:#FFFAFA;}
</style>
<path class="st0" d="M0,0h24c24,0,72,0,120,0s96,0,144,0s96,0,144,0s96,0,144,0s96,0,144,0s96,0,144,0s96,0,144,0s96,0,144,0
	s96,0,144,0s96,0,120,0h24v224l-24-37.3C1392,149,1344,75,1296,80s-96,91-144,90.7c-48,0.3-96-85.7-144-85.4c-48-0.3-96,85.7-144,96
	c-48,10.7-96-53.3-144-64c-48-10.3-96,31.7-144,32C528,149,480,107,432,96s-96,11-144,21.3c-48,10.7-96,10.7-144,21.4
	C96,149,48,171,24,181.3L0,192V0z"/>
</svg>
