<?xml version="1.0" encoding="utf-8"?>
<!-- Generator: Adobe Illustrator 24.3.0, SVG Export Plug-In . SVG Version: 6.00 Build 0)  -->
<svg version="1.1" id="Layer_1" xmlns="http://www.w3.org/2000/svg" xmlns:xlink="http://www.w3.org/1999/xlink" x="0px" y="0px"
	 viewBox="0 0 1440 224" style="enable-background:new 0 0 1440 224;" xml:space="preserve">
<style type="text/css">
	.st0{fill:#FFFAFA;}
</style>
<path class="st0" d="M0,32l24,10.7C48,53,96,75,144,85.3C192,96,240,96,288,106.7C336,117,384,139,432,128s96-53,144-53.3
	c48,0.3,96,42.3,144,32c48-10.7,96-74.7,144-64c48,10.3,96,96.3,144,96c48,0.3,96-85.7,144-85.4c48-0.3,96,85.7,144,90.7
	s96-69,120-106.7L1440,0v224h-24c-24,0-72,0-120,0s-96,0-144,0s-96,0-144,0s-96,0-144,0s-96,0-144,0s-96,0-144,0s-96,0-144,0
	s-96,0-144,0s-96,0-144,0s-96,0-120,0H0V32z"/>
</svg>
