<?xml version="1.0" standalone="no"?><svg xmlns="http://www.w3.org/2000/svg" viewBox="0 0 1440 320"><path fill="#FF4081" fill-opacity="1" d="M0,192L6.2,165.3C12.3,139,25,85,37,74.7C49.2,64,62,96,74,106.7C86.2,117,98,107,111,106.7C123.1,107,135,117,148,149.3C160,181,172,235,185,245.3C196.9,256,209,224,222,186.7C233.8,149,246,107,258,101.3C270.8,96,283,128,295,165.3C307.7,203,320,245,332,256C344.6,267,357,245,369,218.7C381.5,192,394,160,406,138.7C418.5,117,431,107,443,138.7C455.4,171,468,245,480,261.3C492.3,277,505,235,517,229.3C529.2,224,542,256,554,256C566.2,256,578,224,591,186.7C603.1,149,615,107,628,74.7C640,43,652,21,665,32C676.9,43,689,85,702,106.7C713.8,128,726,128,738,112C750.8,96,763,64,775,48C787.7,32,800,32,812,53.3C824.6,75,837,117,849,138.7C861.5,160,874,160,886,170.7C898.5,181,911,203,923,208C935.4,213,948,203,960,208C972.3,213,985,235,997,213.3C1009.2,192,1022,128,1034,128C1046.2,128,1058,192,1071,218.7C1083.1,245,1095,235,1108,208C1120,181,1132,139,1145,117.3C1156.9,96,1169,96,1182,112C1193.8,128,1206,160,1218,181.3C1230.8,203,1243,213,1255,218.7C1267.7,224,1280,224,1292,218.7C1304.6,213,1317,203,1329,170.7C1341.5,139,1354,85,1366,74.7C1378.5,64,1391,96,1403,101.3C1415.4,107,1428,85,1434,74.7L1440,64L1440,320L1433.8,320C1427.7,320,1415,320,1403,320C1390.8,320,1378,320,1366,320C1353.8,320,1342,320,1329,320C1316.9,320,1305,320,1292,320C1280,320,1268,320,1255,320C1243.1,320,1231,320,1218,320C1206.2,320,1194,320,1182,320C1169.2,320,1157,320,1145,320C1132.3,320,1120,320,1108,320C1095.4,320,1083,320,1071,320C1058.5,320,1046,320,1034,320C1021.5,320,1009,320,997,320C984.6,320,972,320,960,320C947.7,320,935,320,923,320C910.8,320,898,320,886,320C873.8,320,862,320,849,320C836.9,320,825,320,812,320C800,320,788,320,775,320C763.1,320,751,320,738,320C726.2,320,714,320,702,320C689.2,320,677,320,665,320C652.3,320,640,320,628,320C615.4,320,603,320,591,320C578.5,320,566,320,554,320C541.5,320,529,320,517,320C504.6,320,492,320,480,320C467.7,320,455,320,443,320C430.8,320,418,320,406,320C393.8,320,382,320,369,320C356.9,320,345,320,332,320C320,320,308,320,295,320C283.1,320,271,320,258,320C246.2,320,234,320,222,320C209.2,320,197,320,185,320C172.3,320,160,320,148,320C135.4,320,123,320,111,320C98.5,320,86,320,74,320C61.5,320,49,320,37,320C24.6,320,12,320,6,320L0,320Z"></path></svg>