<?xml version="1.0" standalone="no"?><svg xmlns="http://www.w3.org/2000/svg" viewBox="0 0 1440 320"><path fill="#00BCD4" fill-opacity="1" d="M0,288L7.7,245.3C15.5,203,31,117,46,96C61.9,75,77,117,93,160C108.4,203,124,245,139,240C154.8,235,170,181,186,170.7C201.3,160,217,192,232,170.7C247.7,149,263,75,279,64C294.2,53,310,107,325,122.7C340.6,139,356,117,372,122.7C387.1,128,403,160,418,181.3C433.5,203,449,213,465,224C480,235,495,245,511,213.3C526.5,181,542,107,557,96C572.9,85,588,139,604,165.3C619.4,192,635,192,650,165.3C665.8,139,681,85,697,69.3C712.3,53,728,75,743,112C758.7,149,774,203,790,186.7C805.2,171,821,85,836,48C851.6,11,867,21,883,64C898.1,107,914,181,929,213.3C944.5,245,960,235,975,234.7C991,235,1006,245,1022,213.3C1037.4,181,1053,107,1068,80C1083.9,53,1099,75,1115,101.3C1130.3,128,1146,160,1161,192C1176.8,224,1192,256,1208,229.3C1223.2,203,1239,117,1254,90.7C1269.7,64,1285,96,1301,101.3C1316.1,107,1332,85,1347,101.3C1362.6,117,1378,171,1394,181.3C1409,192,1425,160,1432,144L1440,128L1440,320L1432.3,320C1424.5,320,1409,320,1394,320C1378.1,320,1363,320,1347,320C1331.6,320,1316,320,1301,320C1285.2,320,1270,320,1254,320C1238.7,320,1223,320,1208,320C1192.3,320,1177,320,1161,320C1145.8,320,1130,320,1115,320C1099.4,320,1084,320,1068,320C1052.9,320,1037,320,1022,320C1006.5,320,991,320,975,320C960,320,945,320,929,320C913.5,320,898,320,883,320C867.1,320,852,320,836,320C820.6,320,805,320,790,320C774.2,320,759,320,743,320C727.7,320,712,320,697,320C681.3,320,666,320,650,320C634.8,320,619,320,604,320C588.4,320,573,320,557,320C541.9,320,526,320,511,320C495.5,320,480,320,465,320C449,320,434,320,418,320C402.6,320,387,320,372,320C356.1,320,341,320,325,320C309.7,320,294,320,279,320C263.2,320,248,320,232,320C216.8,320,201,320,186,320C170.3,320,155,320,139,320C123.9,320,108,320,93,320C77.4,320,62,320,46,320C31,320,15,320,8,320L0,320Z"></path></svg>